<mxfile host="Electron" modified="2023-08-28T19:44:31.087Z" agent="Mozilla/5.0 (Macintosh; Intel Mac OS X 10_15_7) AppleWebKit/537.36 (KHTML, like Gecko) draw.io/21.6.8 Chrome/114.0.5735.289 Electron/25.5.0 Safari/537.36" etag="zUhaLILmBvW3UfQe21Dw" version="21.6.8" type="device">
  <diagram id="xcK6vMECu_Pod034k29O" name="Page-1">
    <mxGraphModel dx="876" dy="616" grid="1" gridSize="10" guides="1" tooltips="1" connect="1" arrows="1" fold="1" page="1" pageScale="1" pageWidth="850" pageHeight="1100" math="0" shadow="0">
      <root>
        <mxCell id="0" />
        <mxCell id="1" parent="0" />
        <mxCell id="nUHTBr9aYNx-pcQYzwJb-15" style="edgeStyle=orthogonalEdgeStyle;curved=1;rounded=1;orthogonalLoop=1;jettySize=auto;html=1;exitX=0.5;exitY=0;exitDx=0;exitDy=0;entryX=0;entryY=0.5;entryDx=0;entryDy=0;labelBackgroundColor=none;fontColor=default;strokeColor=#E07A5F;" parent="1" source="nUHTBr9aYNx-pcQYzwJb-1" target="nUHTBr9aYNx-pcQYzwJb-3" edge="1">
          <mxGeometry relative="1" as="geometry" />
        </mxCell>
        <mxCell id="nUHTBr9aYNx-pcQYzwJb-1" value="" style="ellipse;whiteSpace=wrap;html=1;aspect=fixed;fillColor=none;rounded=1;labelBackgroundColor=none;strokeColor=#E07A5F;fontColor=#393C56;" parent="1" vertex="1">
          <mxGeometry x="210" y="370" width="80" height="80" as="geometry" />
        </mxCell>
        <mxCell id="nUHTBr9aYNx-pcQYzwJb-14" style="edgeStyle=orthogonalEdgeStyle;rounded=1;orthogonalLoop=1;jettySize=auto;html=1;exitX=1;exitY=0.5;exitDx=0;exitDy=0;curved=1;entryX=0.5;entryY=0;entryDx=0;entryDy=0;labelBackgroundColor=none;fontColor=default;strokeColor=#E07A5F;" parent="1" source="nUHTBr9aYNx-pcQYzwJb-3" target="13" edge="1">
          <mxGeometry relative="1" as="geometry">
            <mxPoint x="470" y="350" as="targetPoint" />
          </mxGeometry>
        </mxCell>
        <mxCell id="nUHTBr9aYNx-pcQYzwJb-3" value="" style="shape=cylinder;whiteSpace=wrap;html=1;boundedLbl=1;backgroundOutline=1;rounded=1;labelBackgroundColor=none;fillColor=#F2CC8F;strokeColor=#E07A5F;fontColor=#393C56;" parent="1" vertex="1">
          <mxGeometry x="330" y="260" width="60" height="80" as="geometry" />
        </mxCell>
        <mxCell id="nUHTBr9aYNx-pcQYzwJb-4" value="&lt;h1&gt;Callback queue&lt;/h1&gt;&lt;p style=&quot;&quot;&gt;The Callback queue contains all the callbacks associated with the transitions that have been fired.&lt;/p&gt;" style="text;html=1;strokeColor=none;fillColor=none;spacing=5;spacingTop=-20;whiteSpace=wrap;overflow=hidden;rounded=1;labelBackgroundColor=none;fontColor=#393C56;" parent="1" vertex="1">
          <mxGeometry x="10" y="360" width="190" height="120" as="geometry" />
        </mxCell>
        <mxCell id="nUHTBr9aYNx-pcQYzwJb-5" value="&lt;h1&gt;Reducer queue&lt;/h1&gt;&lt;p&gt;The reducer queue is dequeued on the Symmetri main-thread. Reducers update the Symmetri state by removing transitions from the active set and potentially updating marking based on the Callbacks&#39; &lt;i&gt;success&lt;/i&gt;.&amp;nbsp;&lt;/p&gt;" style="text;html=1;strokeColor=none;fillColor=none;spacing=5;spacingTop=-20;whiteSpace=wrap;overflow=hidden;rounded=1;labelBackgroundColor=none;fontColor=#393C56;" parent="1" vertex="1">
          <mxGeometry x="520" y="350" width="210" height="140" as="geometry" />
        </mxCell>
        <mxCell id="nUHTBr9aYNx-pcQYzwJb-6" value="&lt;h1&gt;Threadpool&lt;/h1&gt;&lt;div&gt;A fixed-size threadpool dequeues callbacks and executes them. The result of every callback is a Reducer that updates the internal Symmetri state. The reducer is dispatched for later execution.&lt;/div&gt;" style="text;html=1;strokeColor=none;fillColor=none;spacing=5;spacingTop=-20;whiteSpace=wrap;overflow=hidden;rounded=1;labelBackgroundColor=none;fontColor=#393C56;" parent="1" vertex="1">
          <mxGeometry x="265" y="110" width="190" height="140" as="geometry" />
        </mxCell>
        <mxCell id="nUHTBr9aYNx-pcQYzwJb-17" style="edgeStyle=orthogonalEdgeStyle;curved=1;rounded=1;orthogonalLoop=1;jettySize=auto;html=1;exitX=0;exitY=0.5;exitDx=0;exitDy=0;entryX=0.5;entryY=1;entryDx=0;entryDy=0;labelBackgroundColor=none;fontColor=default;strokeColor=#E07A5F;" parent="1" source="nUHTBr9aYNx-pcQYzwJb-7" target="nUHTBr9aYNx-pcQYzwJb-1" edge="1">
          <mxGeometry relative="1" as="geometry" />
        </mxCell>
        <mxCell id="nUHTBr9aYNx-pcQYzwJb-7" value="" style="rounded=1;whiteSpace=wrap;html=1;labelBackgroundColor=none;fillColor=#F2CC8F;strokeColor=#E07A5F;fontColor=#393C56;" parent="1" vertex="1">
          <mxGeometry x="330" y="500" width="55" height="60" as="geometry" />
        </mxCell>
        <mxCell id="nUHTBr9aYNx-pcQYzwJb-11" value="&lt;h1&gt;Fire transitions&lt;/h1&gt;&lt;p&gt;In the main Symmetri loop, unless paused or cancelled, the set of active transitions is determined and queued to the callback queue in order of priority. Transitions with Synchronous Callbacks are executed on the Symmetri main-thread and can directly mutate the post-Callback mutations.&amp;nbsp;&lt;/p&gt;" style="text;html=1;strokeColor=none;fillColor=none;spacing=5;spacingTop=-20;whiteSpace=wrap;overflow=hidden;rounded=1;labelBackgroundColor=none;fontColor=#393C56;" parent="1" vertex="1">
          <mxGeometry x="250" y="570" width="250" height="170" as="geometry" />
        </mxCell>
        <mxCell id="nUHTBr9aYNx-pcQYzwJb-21" value="Callback queuing" style="text;html=1;strokeColor=none;fillColor=none;align=left;verticalAlign=middle;whiteSpace=wrap;rounded=1;labelBackgroundColor=none;fontColor=#393C56;" parent="1" vertex="1">
          <mxGeometry x="200" y="480" width="40" height="20" as="geometry" />
        </mxCell>
        <mxCell id="nUHTBr9aYNx-pcQYzwJb-22" value="Callback execution" style="text;html=1;strokeColor=none;fillColor=none;align=left;verticalAlign=middle;whiteSpace=wrap;rounded=1;labelBackgroundColor=none;fontColor=#393C56;" parent="1" vertex="1">
          <mxGeometry x="200" y="300" width="40" height="20" as="geometry" />
        </mxCell>
        <mxCell id="nUHTBr9aYNx-pcQYzwJb-23" value="Reducer queuing" style="text;html=1;strokeColor=none;fillColor=none;align=left;verticalAlign=middle;whiteSpace=wrap;rounded=1;labelBackgroundColor=none;fontColor=#393C56;" parent="1" vertex="1">
          <mxGeometry x="470" y="300" width="40" height="20" as="geometry" />
        </mxCell>
        <mxCell id="2" value="" style="ellipse;whiteSpace=wrap;html=1;aspect=fixed;rounded=1;labelBackgroundColor=none;fillColor=#F2CC8F;strokeColor=#E07A5F;fontColor=#393C56;" parent="1" vertex="1">
          <mxGeometry x="223.75" y="383.75" width="52.5" height="52.5" as="geometry" />
        </mxCell>
        <mxCell id="4" value="" style="endArrow=none;html=1;exitX=0;exitY=0.5;exitDx=0;exitDy=0;entryX=0;entryY=0.5;entryDx=0;entryDy=0;rounded=1;labelBackgroundColor=none;fontColor=default;strokeColor=#E07A5F;" parent="1" source="nUHTBr9aYNx-pcQYzwJb-1" target="2" edge="1">
          <mxGeometry width="50" height="50" relative="1" as="geometry">
            <mxPoint x="260" y="430" as="sourcePoint" />
            <mxPoint x="310" y="380" as="targetPoint" />
          </mxGeometry>
        </mxCell>
        <mxCell id="5" value="" style="endArrow=none;html=1;exitX=0;exitY=1;exitDx=0;exitDy=0;entryX=0;entryY=1;entryDx=0;entryDy=0;rounded=1;labelBackgroundColor=none;fontColor=default;strokeColor=#E07A5F;" parent="1" source="nUHTBr9aYNx-pcQYzwJb-1" target="2" edge="1">
          <mxGeometry width="50" height="50" relative="1" as="geometry">
            <mxPoint x="220" y="420" as="sourcePoint" />
            <mxPoint x="233.74999999999795" y="420" as="targetPoint" />
          </mxGeometry>
        </mxCell>
        <mxCell id="6" value="" style="endArrow=none;html=1;exitX=0.5;exitY=1;exitDx=0;exitDy=0;entryX=0.5;entryY=1;entryDx=0;entryDy=0;rounded=1;labelBackgroundColor=none;fontColor=default;strokeColor=#E07A5F;" parent="1" source="nUHTBr9aYNx-pcQYzwJb-1" target="2" edge="1">
          <mxGeometry width="50" height="50" relative="1" as="geometry">
            <mxPoint x="230" y="430" as="sourcePoint" />
            <mxPoint x="243.74999999999795" y="430" as="targetPoint" />
          </mxGeometry>
        </mxCell>
        <mxCell id="7" value="" style="endArrow=none;html=1;exitX=1;exitY=1;exitDx=0;exitDy=0;entryX=1;entryY=1;entryDx=0;entryDy=0;rounded=1;labelBackgroundColor=none;fontColor=default;strokeColor=#E07A5F;" parent="1" source="2" target="nUHTBr9aYNx-pcQYzwJb-1" edge="1">
          <mxGeometry width="50" height="50" relative="1" as="geometry">
            <mxPoint x="240" y="440" as="sourcePoint" />
            <mxPoint x="253.74999999999795" y="440" as="targetPoint" />
          </mxGeometry>
        </mxCell>
        <mxCell id="8" value="" style="endArrow=none;html=1;exitX=1;exitY=0.5;exitDx=0;exitDy=0;entryX=1;entryY=0.5;entryDx=0;entryDy=0;rounded=1;labelBackgroundColor=none;fontColor=default;strokeColor=#E07A5F;" parent="1" source="2" target="nUHTBr9aYNx-pcQYzwJb-1" edge="1">
          <mxGeometry width="50" height="50" relative="1" as="geometry">
            <mxPoint x="250" y="450" as="sourcePoint" />
            <mxPoint x="263.74999999999795" y="450" as="targetPoint" />
          </mxGeometry>
        </mxCell>
        <mxCell id="9" value="" style="endArrow=none;html=1;entryX=1;entryY=0;entryDx=0;entryDy=0;rounded=1;labelBackgroundColor=none;fontColor=default;strokeColor=#E07A5F;" parent="1" source="nUHTBr9aYNx-pcQYzwJb-1" target="2" edge="1">
          <mxGeometry width="50" height="50" relative="1" as="geometry">
            <mxPoint x="260" y="460" as="sourcePoint" />
            <mxPoint x="273.74999999999795" y="460" as="targetPoint" />
          </mxGeometry>
        </mxCell>
        <mxCell id="11" value="" style="endArrow=none;html=1;entryX=0.5;entryY=0;entryDx=0;entryDy=0;exitX=0.5;exitY=0;exitDx=0;exitDy=0;rounded=1;labelBackgroundColor=none;fontColor=default;strokeColor=#E07A5F;" parent="1" source="nUHTBr9aYNx-pcQYzwJb-1" target="2" edge="1">
          <mxGeometry width="50" height="50" relative="1" as="geometry">
            <mxPoint x="270" y="368" as="sourcePoint" />
            <mxPoint x="293.74999999999795" y="480" as="targetPoint" />
          </mxGeometry>
        </mxCell>
        <mxCell id="12" value="" style="endArrow=none;html=1;entryX=0;entryY=0;entryDx=0;entryDy=0;exitX=0;exitY=0;exitDx=0;exitDy=0;rounded=1;labelBackgroundColor=none;fontColor=default;strokeColor=#E07A5F;" parent="1" source="nUHTBr9aYNx-pcQYzwJb-1" target="2" edge="1">
          <mxGeometry width="50" height="50" relative="1" as="geometry">
            <mxPoint x="260" y="380" as="sourcePoint" />
            <mxPoint x="260" y="393.75" as="targetPoint" />
          </mxGeometry>
        </mxCell>
        <mxCell id="13" value="" style="ellipse;whiteSpace=wrap;html=1;aspect=fixed;fillColor=none;rounded=1;labelBackgroundColor=none;strokeColor=#E07A5F;fontColor=#393C56;" parent="1" vertex="1">
          <mxGeometry x="415" y="370" width="80" height="80" as="geometry" />
        </mxCell>
        <mxCell id="14" value="" style="ellipse;whiteSpace=wrap;html=1;aspect=fixed;rounded=1;labelBackgroundColor=none;fillColor=#F2CC8F;strokeColor=#E07A5F;fontColor=#393C56;" parent="1" vertex="1">
          <mxGeometry x="428.75" y="383.75" width="52.5" height="52.5" as="geometry" />
        </mxCell>
        <mxCell id="15" value="" style="endArrow=none;html=1;exitX=0;exitY=0.5;exitDx=0;exitDy=0;entryX=0;entryY=0.5;entryDx=0;entryDy=0;rounded=1;labelBackgroundColor=none;fontColor=default;strokeColor=#E07A5F;" parent="1" source="13" target="14" edge="1">
          <mxGeometry width="50" height="50" relative="1" as="geometry">
            <mxPoint x="465" y="430" as="sourcePoint" />
            <mxPoint x="515" y="380" as="targetPoint" />
          </mxGeometry>
        </mxCell>
        <mxCell id="16" value="" style="endArrow=none;html=1;exitX=0;exitY=1;exitDx=0;exitDy=0;entryX=0;entryY=1;entryDx=0;entryDy=0;rounded=1;labelBackgroundColor=none;fontColor=default;strokeColor=#E07A5F;" parent="1" source="13" target="14" edge="1">
          <mxGeometry width="50" height="50" relative="1" as="geometry">
            <mxPoint x="425" y="420" as="sourcePoint" />
            <mxPoint x="438.74999999999795" y="420" as="targetPoint" />
          </mxGeometry>
        </mxCell>
        <mxCell id="17" value="" style="endArrow=none;html=1;exitX=0.5;exitY=1;exitDx=0;exitDy=0;entryX=0.5;entryY=1;entryDx=0;entryDy=0;rounded=1;labelBackgroundColor=none;fontColor=default;strokeColor=#E07A5F;" parent="1" source="13" target="14" edge="1">
          <mxGeometry width="50" height="50" relative="1" as="geometry">
            <mxPoint x="435" y="430" as="sourcePoint" />
            <mxPoint x="448.74999999999795" y="430" as="targetPoint" />
          </mxGeometry>
        </mxCell>
        <mxCell id="18" value="" style="endArrow=none;html=1;exitX=1;exitY=1;exitDx=0;exitDy=0;entryX=1;entryY=1;entryDx=0;entryDy=0;rounded=1;labelBackgroundColor=none;fontColor=default;strokeColor=#E07A5F;" parent="1" source="14" target="13" edge="1">
          <mxGeometry width="50" height="50" relative="1" as="geometry">
            <mxPoint x="445" y="440" as="sourcePoint" />
            <mxPoint x="458.74999999999795" y="440" as="targetPoint" />
          </mxGeometry>
        </mxCell>
        <mxCell id="19" value="" style="endArrow=none;html=1;exitX=1;exitY=0.5;exitDx=0;exitDy=0;entryX=1;entryY=0.5;entryDx=0;entryDy=0;rounded=1;labelBackgroundColor=none;fontColor=default;strokeColor=#E07A5F;" parent="1" source="14" target="13" edge="1">
          <mxGeometry width="50" height="50" relative="1" as="geometry">
            <mxPoint x="455" y="450" as="sourcePoint" />
            <mxPoint x="468.74999999999795" y="450" as="targetPoint" />
          </mxGeometry>
        </mxCell>
        <mxCell id="20" value="" style="endArrow=none;html=1;entryX=1;entryY=0;entryDx=0;entryDy=0;rounded=1;labelBackgroundColor=none;fontColor=default;strokeColor=#E07A5F;" parent="1" source="13" target="14" edge="1">
          <mxGeometry width="50" height="50" relative="1" as="geometry">
            <mxPoint x="465" y="460" as="sourcePoint" />
            <mxPoint x="478.74999999999795" y="460" as="targetPoint" />
          </mxGeometry>
        </mxCell>
        <mxCell id="21" value="" style="endArrow=none;html=1;entryX=0.5;entryY=0;entryDx=0;entryDy=0;exitX=0.5;exitY=0;exitDx=0;exitDy=0;rounded=1;labelBackgroundColor=none;fontColor=default;strokeColor=#E07A5F;" parent="1" source="13" target="14" edge="1">
          <mxGeometry width="50" height="50" relative="1" as="geometry">
            <mxPoint x="475" y="368" as="sourcePoint" />
            <mxPoint x="498.74999999999795" y="480" as="targetPoint" />
          </mxGeometry>
        </mxCell>
        <mxCell id="22" value="" style="endArrow=none;html=1;entryX=0;entryY=0;entryDx=0;entryDy=0;exitX=0;exitY=0;exitDx=0;exitDy=0;rounded=1;labelBackgroundColor=none;fontColor=default;strokeColor=#E07A5F;" parent="1" source="13" target="14" edge="1">
          <mxGeometry width="50" height="50" relative="1" as="geometry">
            <mxPoint x="465" y="380" as="sourcePoint" />
            <mxPoint x="465" y="393.75" as="targetPoint" />
          </mxGeometry>
        </mxCell>
        <mxCell id="ykQJc_Yf42bZ8ywSkh9Z-22" value="" style="ellipse;whiteSpace=wrap;html=1;aspect=fixed;fillColor=none;rounded=1;labelBackgroundColor=none;strokeColor=#E07A5F;fontColor=#393C56;" parent="1" vertex="1">
          <mxGeometry x="435" y="510" width="40" height="40" as="geometry" />
        </mxCell>
        <mxCell id="ykQJc_Yf42bZ8ywSkh9Z-23" value="" style="ellipse;whiteSpace=wrap;html=1;aspect=fixed;rounded=1;labelBackgroundColor=none;fillColor=#F2CC8F;strokeColor=#E07A5F;fontColor=#393C56;" parent="1" vertex="1">
          <mxGeometry x="450" y="516" width="10" height="10" as="geometry" />
        </mxCell>
        <mxCell id="ykQJc_Yf42bZ8ywSkh9Z-24" value="" style="ellipse;whiteSpace=wrap;html=1;aspect=fixed;rounded=1;labelBackgroundColor=none;fillColor=#F2CC8F;strokeColor=#E07A5F;fontColor=#393C56;" parent="1" vertex="1">
          <mxGeometry x="460" y="526" width="10" height="10" as="geometry" />
        </mxCell>
        <mxCell id="ykQJc_Yf42bZ8ywSkh9Z-25" value="" style="ellipse;whiteSpace=wrap;html=1;aspect=fixed;rounded=1;labelBackgroundColor=none;fillColor=#F2CC8F;strokeColor=#E07A5F;fontColor=#393C56;" parent="1" vertex="1">
          <mxGeometry x="450" y="536" width="10" height="10" as="geometry" />
        </mxCell>
        <mxCell id="ykQJc_Yf42bZ8ywSkh9Z-26" value="" style="ellipse;whiteSpace=wrap;html=1;aspect=fixed;rounded=1;labelBackgroundColor=none;fillColor=#F2CC8F;strokeColor=#E07A5F;fontColor=#393C56;" parent="1" vertex="1">
          <mxGeometry x="440" y="526" width="10" height="10" as="geometry" />
        </mxCell>
        <mxCell id="ykQJc_Yf42bZ8ywSkh9Z-30" value="" style="endArrow=classic;html=1;rounded=1;exitX=0.5;exitY=1;exitDx=0;exitDy=0;entryX=0.5;entryY=0;entryDx=0;entryDy=0;labelBackgroundColor=none;fontColor=default;strokeColor=#E07A5F;" parent="1" source="13" target="ykQJc_Yf42bZ8ywSkh9Z-22" edge="1">
          <mxGeometry width="50" height="50" relative="1" as="geometry">
            <mxPoint x="500" y="410" as="sourcePoint" />
            <mxPoint x="550" y="360" as="targetPoint" />
          </mxGeometry>
        </mxCell>
        <mxCell id="ykQJc_Yf42bZ8ywSkh9Z-32" value="Marking" style="text;html=1;strokeColor=none;fillColor=none;align=center;verticalAlign=middle;whiteSpace=wrap;rounded=1;labelBackgroundColor=none;fontColor=#393C56;" parent="1" vertex="1">
          <mxGeometry x="470" y="536" width="60" height="30" as="geometry" />
        </mxCell>
        <mxCell id="bWdPmxylE46qskRThhqX-22" value="" style="endArrow=classic;html=1;rounded=1;exitX=0;exitY=0.5;exitDx=0;exitDy=0;entryX=1;entryY=0.5;entryDx=0;entryDy=0;labelBackgroundColor=none;fontColor=default;strokeColor=#E07A5F;" edge="1" parent="1" source="ykQJc_Yf42bZ8ywSkh9Z-22" target="nUHTBr9aYNx-pcQYzwJb-7">
          <mxGeometry width="50" height="50" relative="1" as="geometry">
            <mxPoint x="340" y="430" as="sourcePoint" />
            <mxPoint x="390" y="380" as="targetPoint" />
          </mxGeometry>
        </mxCell>
        <mxCell id="bWdPmxylE46qskRThhqX-24" value="" style="curved=1;endArrow=classic;html=1;rounded=1;exitX=0.5;exitY=0;exitDx=0;exitDy=0;labelBackgroundColor=none;fontColor=default;strokeColor=#E07A5F;" edge="1" parent="1" source="nUHTBr9aYNx-pcQYzwJb-7" target="ykQJc_Yf42bZ8ywSkh9Z-22">
          <mxGeometry width="50" height="50" relative="1" as="geometry">
            <mxPoint x="340" y="500" as="sourcePoint" />
            <mxPoint x="390" y="450" as="targetPoint" />
            <Array as="points">
              <mxPoint x="380" y="470" />
              <mxPoint x="430" y="480" />
            </Array>
          </mxGeometry>
        </mxCell>
        <mxCell id="bWdPmxylE46qskRThhqX-26" value="Reducer execution" style="text;html=1;strokeColor=none;fillColor=none;align=left;verticalAlign=middle;whiteSpace=wrap;rounded=1;labelBackgroundColor=none;fontColor=#393C56;" vertex="1" parent="1">
          <mxGeometry x="470" y="480" width="40" height="20" as="geometry" />
        </mxCell>
      </root>
    </mxGraphModel>
  </diagram>
</mxfile>
